<?xml version="1.0" encoding="utf-8"?>
<!-- Generator: Adobe Illustrator 23.1.1, SVG Export Plug-In . SVG Version: 6.00 Build 0)  -->
<svg version="1.1" id="Layer_1" xmlns="http://www.w3.org/2000/svg" xmlns:xlink="http://www.w3.org/1999/xlink" x="0px" y="0px"
	 viewBox="0 0 780.9 75.6" style="enable-background:new 0 0 780.9 75.6;" xml:space="preserve">
<style type="text/css">
	.st0{clip-path:url(#SVGID_2_);fill:url(#SVGID_3_);}
	.st1{clip-path:url(#SVGID_5_);fill:url(#SVGID_6_);}
	.st2{clip-path:url(#SVGID_8_);fill:url(#SVGID_9_);}
	.st3{clip-path:url(#SVGID_11_);fill:url(#SVGID_12_);}
	.st4{clip-path:url(#SVGID_14_);fill:url(#SVGID_15_);}
	.st5{fill:#010101;}
	.st6{fill:#FFFFFF;}
</style>
<g>
	<defs>
		<path id="SVGID_1_" d="M66.5,2.5L66.5,2.5c-1.7,0-2.7,0.8-3.7,3.1L52,32.4l0.3,1.4c0,0,8.7,35,9.1,37c0.5,2,1.4,2.9,3.7,3h0.2
			c0,0,0,0,0,0c1.9-0.3,2.5-1.5,3.4-3.8c0.5-1.4,6.7-16.9,12.7-31.7v0C77.8,23.4,74.3,9.2,74,8.1C73.2,4.9,69.8,2.5,66.5,2.5
			C66.5,2.5,66.5,2.5,66.5,2.5"/>
	</defs>
	<clipPath id="SVGID_2_">
		<use xlink:href="#SVGID_1_"  style="overflow:visible;"/>
	</clipPath>
	
		<linearGradient id="SVGID_3_" gradientUnits="userSpaceOnUse" x1="-222.7908" y1="262.2109" x2="-222.5023" y2="262.2109" gradientTransform="matrix(-1.2333 -244.8669 244.8669 -1.2333 -64414.5547 -54157.8242)">
		<stop  offset="0" style="stop-color:#4FB9E9"/>
		<stop  offset="8.475149e-02" style="stop-color:#4CB5E6"/>
		<stop  offset="0.2003" style="stop-color:#42A9DE"/>
		<stop  offset="0.3334" style="stop-color:#3195D2"/>
		<stop  offset="0.4789" style="stop-color:#147DC2"/>
		<stop  offset="0.4847" style="stop-color:#137CC1"/>
		<stop  offset="0.5109" style="stop-color:#1A73B2"/>
		<stop  offset="0.6147" style="stop-color:#215990"/>
		<stop  offset="0.7172" style="stop-color:#224679"/>
		<stop  offset="0.817" style="stop-color:#21396A"/>
		<stop  offset="0.9127" style="stop-color:#213062"/>
		<stop  offset="1" style="stop-color:#212E5F"/>
	</linearGradient>
	<polygon class="st0" points="81.9,73.7 81.6,2.4 51.7,2.6 52,73.9 	"/>
</g>
<g>
	<defs>
		<path id="SVGID_4_" d="M127.4,2.6c-1.6,0-2.6,0.8-3.7,3l-10.9,27.2l0.3,1c0,0,8.6,35,9.1,36.9c0.5,2.1,1.5,3,3.8,3h0.1
			c0.1,0,0.2,0,0.3,0h-0.1c1.2-0.3,2.8-2.4,3.7-4.7c0.5-1.4,6.5-16.3,12.3-30.7c-3.7-14.8-7.3-29.1-7.6-30.2
			C134,5,130.7,2.6,127.4,2.6L127.4,2.6z"/>
	</defs>
	<clipPath id="SVGID_5_">
		<use xlink:href="#SVGID_4_"  style="overflow:visible;"/>
	</clipPath>
	
		<linearGradient id="SVGID_6_" gradientUnits="userSpaceOnUse" x1="-222.7747" y1="261.4965" x2="-222.4862" y2="261.4965" gradientTransform="matrix(-0.9302 -184.7004 184.7004 -0.9302 -48377.918 -40832.6797)">
		<stop  offset="0" style="stop-color:#D82429"/>
		<stop  offset="0.1565" style="stop-color:#D32428"/>
		<stop  offset="0.3065" style="stop-color:#C62327"/>
		<stop  offset="0.4539" style="stop-color:#B22124"/>
		<stop  offset="0.599" style="stop-color:#961D20"/>
		<stop  offset="0.6135" style="stop-color:#931D1F"/>
		<stop  offset="0.6881" style="stop-color:#8E1C1F"/>
		<stop  offset="0.7961" style="stop-color:#7F1A1E"/>
		<stop  offset="0.9237" style="stop-color:#68161C"/>
		<stop  offset="1" style="stop-color:#59111B"/>
	</linearGradient>
	<polygon class="st1" points="142.8,73.7 142.4,2.4 112.5,2.6 112.9,73.9 	"/>
</g>
<g>
	<defs>
		<path id="SVGID_7_" d="M165.8,2.5c-5.6,0-10.5,3.8-12.3,8c0,0-5.5,13.8-11.2,28c-5.8,14.4-11.7,29.3-12.3,30.7
			c-0.9,2.3-2.5,4.4-3.7,4.7h0.1l21.7-0.1c5.3,0,9.9-3.2,12.1-7.6l24.3-60.7c1-2.3,2.1-3,3.7-3L165.8,2.5z"/>
	</defs>
	<clipPath id="SVGID_8_">
		<use xlink:href="#SVGID_7_"  style="overflow:visible;"/>
	</clipPath>
	
		<linearGradient id="SVGID_9_" gradientUnits="userSpaceOnUse" x1="-222.3528" y1="262.5446" x2="-222.0641" y2="262.5446" gradientTransform="matrix(1.2184 241.8923 -241.8923 1.2184 63935.6523 53469.3672)">
		<stop  offset="0" style="stop-color:#D82429"/>
		<stop  offset="0.1565" style="stop-color:#D32428"/>
		<stop  offset="0.3065" style="stop-color:#C62327"/>
		<stop  offset="0.4539" style="stop-color:#B22124"/>
		<stop  offset="0.599" style="stop-color:#961D20"/>
		<stop  offset="0.6135" style="stop-color:#931D1F"/>
		<stop  offset="0.6881" style="stop-color:#8E1C1F"/>
		<stop  offset="0.7961" style="stop-color:#7F1A1E"/>
		<stop  offset="0.9237" style="stop-color:#68161C"/>
		<stop  offset="1" style="stop-color:#59111B"/>
	</linearGradient>
	<polygon class="st2" points="126.1,2.4 126.4,74.2 188.7,73.9 188.4,2.1 	"/>
</g>
<g>
	<defs>
		<path id="SVGID_10_" d="M121.1,2.4l-15.7,0.1h-0.2h-0.4c-5.5,0.1-10.3,3.8-12.1,8c0,0-5.4,13.6-11.1,27.8
			c-5.9,14.8-12.1,30.4-12.7,31.7c-0.9,2.3-1.5,3.5-3.4,3.8c0,0,0,0-0.1,0l22.1-0.1c5.3,0,9.9-3.2,12.1-7.6l13.4-33.5l10.9-27.2
			c1-2.2,2-3,3.7-3L121.1,2.4z"/>
	</defs>
	<clipPath id="SVGID_11_">
		<use xlink:href="#SVGID_10_"  style="overflow:visible;"/>
	</clipPath>
	
		<linearGradient id="SVGID_12_" gradientUnits="userSpaceOnUse" x1="-222.3544" y1="261.9243" x2="-222.0658" y2="261.9243" gradientTransform="matrix(1.2184 241.8923 -241.8923 1.2184 63724.6523 53470.4922)">
		<stop  offset="0" style="stop-color:#4FB9E9"/>
		<stop  offset="8.475149e-02" style="stop-color:#4CB5E6"/>
		<stop  offset="0.2003" style="stop-color:#42A9DE"/>
		<stop  offset="0.3334" style="stop-color:#3195D2"/>
		<stop  offset="0.4789" style="stop-color:#147DC2"/>
		<stop  offset="0.4847" style="stop-color:#137CC1"/>
		<stop  offset="0.5109" style="stop-color:#1A73B2"/>
		<stop  offset="0.6147" style="stop-color:#215990"/>
		<stop  offset="0.7172" style="stop-color:#224679"/>
		<stop  offset="0.817" style="stop-color:#21396A"/>
		<stop  offset="0.9127" style="stop-color:#213062"/>
		<stop  offset="1" style="stop-color:#212E5F"/>
	</linearGradient>
	<polygon class="st3" points="65,2.4 65.4,74.2 127.9,73.9 127.5,2.1 	"/>
</g>
<g>
	<defs>
		<path id="SVGID_13_" d="M66.5,2.4L43.9,2.5c-5.5,0.1-10.4,3.8-12.2,8c0,0-22.8,56.9-23.8,59.6c-0.9,2.3-1.6,3.5-3.5,3.8l22-0.1
			c5.3,0,9.9-3.2,12.1-7.6L52,32.3L62.7,5.4C63.8,3.2,64.8,2.4,66.5,2.4z"/>
	</defs>
	<clipPath id="SVGID_14_">
		<use xlink:href="#SVGID_13_"  style="overflow:visible;"/>
	</clipPath>
	
		<linearGradient id="SVGID_15_" gradientUnits="userSpaceOnUse" x1="-222.3558" y1="261.3018" x2="-222.0672" y2="261.3018" gradientTransform="matrix(1.2184 241.8923 -241.8923 1.2184 63513.0273 53471.6172)">
		<stop  offset="0" style="stop-color:#4FB9E9"/>
		<stop  offset="8.475149e-02" style="stop-color:#4CB5E6"/>
		<stop  offset="0.2003" style="stop-color:#42A9DE"/>
		<stop  offset="0.3334" style="stop-color:#3195D2"/>
		<stop  offset="0.4789" style="stop-color:#147DC2"/>
		<stop  offset="0.4847" style="stop-color:#137CC1"/>
		<stop  offset="0.5109" style="stop-color:#1A73B2"/>
		<stop  offset="0.6147" style="stop-color:#215990"/>
		<stop  offset="0.7172" style="stop-color:#224679"/>
		<stop  offset="0.817" style="stop-color:#21396A"/>
		<stop  offset="0.9127" style="stop-color:#213062"/>
		<stop  offset="1" style="stop-color:#212E5F"/>
	</linearGradient>
	<polygon class="st4" points="4,2.4 4.3,74.2 66.8,73.9 66.5,2.1 	"/>
</g>
<g>
	<defs>
		<rect id="SVGID_16_" x="4" y="-19.9" width="184.7" height="116"/>
	</defs>
	<clipPath id="SVGID_17_">
		<use xlink:href="#SVGID_16_"  style="overflow:visible;"/>
	</clipPath>
</g>
<g>
	<path class="st5" d="M387.5,12.6c-14.8,0-26.6,11.5-26.6,26c0,14.5,11.5,25.7,26.3,25.7s26.6-11.5,26.6-25.7
		C414.1,23.8,402.3,12.6,387.5,12.6"/>
	<path class="st6" d="M387.2,51c-6.7,0-11.5-5.1-11.5-12.4s4.8-12.7,11.5-13c6.7,0,11.5,5.4,11.5,12.7C398.7,45.6,393.9,51,387.2,51
		"/>
	<path class="st5" d="M443.2,46.5L432,13.8h-16.6c0,0,13.6,35.4,15.7,40.2c1.8,4.5,4.8,10.3,12.1,10c6.4,0,9.7-3.9,11.8-10
		c2.1-5.7,16.3-40.8,16.3-40.8h-9.1c-4.2,0-7.6,3.6-9.1,7.6L443.2,46.5z"/>
	<path class="st5" d="M611.7,11.7c-15.4,0-26.9,11.2-26.9,25.7v29c0,4.8,3.9,7.3,7.6,7.3c3.9,0,7.9-2.4,7.6-7.3v-7.6
		c3.6,2.7,8.2,4.2,13.6,4.2c13.9,0,25.1-11.8,25.1-26C638.6,22.6,627.1,11.4,611.7,11.7"/>
	<path class="st6" d="M611.7,25.6c6.4,0,11.5,5.1,11.5,11.8c0,6.7-4.8,12.1-11.5,12.1c-6.4,0-11.5-5.1-11.5-11.8
		S605.3,25.6,611.7,25.6"/>
	<path class="st5" d="M673.1,11.4c-14.8,0-26.6,11.5-26.6,26c0,14.5,11.8,25.7,26.6,25.4c15.1,0,26.6-11.5,26.6-25.7
		C700,22.6,688.2,11.1,673.1,11.4"/>
	<path class="st6" d="M673.4,49.5c-6.7,0-11.5-5.1-11.5-12.4s4.8-12.7,11.5-12.7s11.5,5.4,11.5,12.7C684.8,44.3,680,49.5,673.4,49.5
		"/>
	<path class="st5" d="M709.7,33.8v28.4h14.5V33.8c0-6.7,5.1-9.7,14.8-8.5h1.2V11.7h-0.9C720.5,9.9,709.7,18.6,709.7,33.8"/>
	<path class="st5" d="M528.5,54c6,5.4,14.2,9.7,23.6,9.4c13,0,22.1-7,22.1-16.9c0-11.5-10-13.9-21.5-15.7c-5.4-0.9-8.5-1.5-8.5-3
		c0-0.9,1.8-2.7,7-2.7c3.9,0,7.3,1.2,10.9,3c3.6,1.8,7.3,1.2,8.8-1.8c0.9-2.4,1.2-5.4-1.5-7.9c-4.2-3.9-10.3-6-18.5-6
		c-14.8,0-21.5,8.5-21.5,16.3c0,12.1,13.6,13.9,20.9,15.1c8.8,1.2,9.1,2.4,9.1,3.9c0,1.8-3,3-7.6,3.3c-5.4,0-10.6-2.1-14.2-5.1
		L528.5,54z"/>
	<path class="st5" d="M775.6,62.2l-0.3-13.6h-5.4c-2.7,0-4.8-1.5-4.8-4.8V25.3h10V13.2v-0.6h-9.1V9.9c0-4.8-3.9-7.3-7.9-7.3
		c-3.6,0-7.6,2.4-7.3,7.3l0.3,36.3c0,10.3,7.6,16.3,18.5,16.3C772,62.2,775.6,62.2,775.6,62.2"/>
	<path class="st5" d="M240.8,14.1c-4.5,0-8.2,3.6-8.2,8.5l0.3,42h16.6l-0.3-42C249,17.7,245.4,14.1,240.8,14.1"/>
	<path class="st5" d="M478,21.7c-0.6-3.3,0.6-6.4,3.6-7.6c3.6-1.5,9.1-2.1,13.6-2.1c10.6,0,25.7,6.4,25.7,25.7S507.9,64,495.5,64
		c-9.7,0-21.8-3.9-22.4-16.9c-0.6-13,12.7-14.8,18.8-15.4c6-0.6,12.7-0.3,12.7-0.3c-1.8-5.4-8.5-7.9-17.2-6
		C483.1,26.5,478.9,25.6,478,21.7"/>
	<path class="st6" d="M506.4,41.6c-5.4-0.3-16.9-0.3-17.5,4.8c-0.6,4.2,3.6,6,7.9,5.7C502.2,51.6,505.8,48.6,506.4,41.6"/>
	<path class="st5" d="M280.8,64.3l-0.3-26.9c5.1,7.9,12.4,18.1,13.9,20.6c3,4.5,7.9,8.5,13.9,6.4c4.2-1.5,6-5.1,6-9.7V37.7
		c2.4,3.6,11.8,17.5,14.2,20.6c3,3.9,10.9,8.5,16.6,5.7c3.9-2.1,6-5.4,6-9.7l-0.3-32.7c0-4.5-3.9-8.2-8.5-8.2
		c-4.2,0-8.2,3.3-8.2,8.5v21.5c-3.9-6-13.6-22.7-13.6-22.7c-3.3-5.7-7.3-7.6-12.7-6.7c-6.7,1.2-7.6,5.7-7.6,10.3v20
		c-3.3-4.8-11.5-17.2-15.7-23.9c-2.1-3.3-6.7-7.9-14.2-6c-5.1,0.9-7,4.8-7,8.5l0.3,42.3L280.8,64.3z"/>
</g>
</svg>
